<svg width="22" height="22" viewBox="0 0 22 22" fill="none" xmlns="http://www.w3.org/2000/svg">
<path d="M6.33359 16.3867C5.99191 16.3867 5.71484 16.6638 5.71484 17.0055C5.71484 17.3472 5.99191 17.6242 6.33359 17.6242H11.034C11.3757 17.6242 11.6528 17.3472 11.6528 17.0055C11.6528 16.6638 11.3757 16.3867 11.034 16.3867H6.33359Z" fill="#666666"/>
<path d="M15.665 10.6172H6.33359C5.99191 10.6172 5.71484 10.8943 5.71484 11.2359C5.71484 11.5776 5.99191 11.8547 6.33359 11.8547H15.665C16.0067 11.8547 16.2838 11.5776 16.2838 11.2359C16.2838 10.8943 16.0067 10.6172 15.665 10.6172Z" fill="#666666"/>
<path d="M16.2845 14.1207C16.2845 13.779 16.0074 13.502 15.6657 13.502H6.33359C5.99191 13.502 5.71484 13.779 5.71484 14.1207C5.71484 14.4624 5.99191 14.7395 6.33359 14.7395H15.665C16.0067 14.7395 16.2845 14.4624 16.2845 14.1207Z" fill="#666666"/>
<path d="M17.5647 3.23017H11.6296C11.2879 3.23017 11.0108 3.50723 11.0108 3.84892C11.0108 4.19061 11.2879 4.46767 11.6296 4.46767H17.5647C18.2282 4.46767 18.7679 5.00392 18.7679 5.66392V18.8027C18.7679 19.4662 18.2282 20.0059 17.5647 20.0059H4.4335C3.77006 20.0059 3.23037 19.4662 3.23037 18.8027V5.66461C3.23037 5.00461 3.77006 4.46836 4.4335 4.46836H8.25737V6.54873C8.25737 6.79623 8.05662 6.99698 7.80912 6.99698C7.56162 6.99698 7.36088 6.79623 7.36088 6.54873V5.90661C7.36088 5.56492 7.08381 5.28786 6.74212 5.28786C6.40044 5.28786 6.12337 5.56492 6.12337 5.90661V6.54942C6.12337 7.47961 6.88031 8.23586 7.80981 8.23586C8.73931 8.23586 9.49625 7.47892 9.49625 6.54942V2.9043C9.49625 1.71973 8.53237 0.755859 7.34781 0.755859C6.16325 0.755859 5.19869 1.71973 5.19869 2.9043V3.23086H4.4335C3.08737 3.23086 1.99219 4.3233 1.99219 5.6653V18.8027C1.99219 20.1489 3.08737 21.244 4.4335 21.244H17.5647C18.9109 21.244 20.0061 20.1489 20.0061 18.8027V5.66461C20.0061 4.32261 18.9109 3.23017 17.5647 3.23017ZM6.43688 2.9043C6.43688 2.40242 6.84525 1.99405 7.34644 1.99405C7.84831 1.99405 8.25669 2.40242 8.25669 2.9043V3.23086H6.43688V2.9043Z" fill="#666666"/>
</svg>
