<svg width="22" height="22" viewBox="0 0 22 22" fill="none" xmlns="http://www.w3.org/2000/svg">
<path d="M20.5 6.45312V11.7227C20.5 12.1326 20.1677 12.4648 19.7578 12.4648C19.3479 12.4648 19.0156 12.1326 19.0156 11.7227V6.45312C19.0156 5.63469 18.3497 4.96875 17.5312 4.96875H16.5664V5.71094C16.5664 6.12088 16.2342 6.45312 15.8242 6.45312C15.4143 6.45312 15.082 6.12088 15.082 5.71094V4.96875H11.7051V5.71094C11.7051 6.12088 11.3728 6.45312 10.9629 6.45312C10.5529 6.45312 10.2207 6.12088 10.2207 5.71094V4.96875H6.88086V5.71094C6.88086 6.12088 6.54861 6.45312 6.13867 6.45312C5.72873 6.45312 5.39648 6.12088 5.39648 5.71094V4.96875H4.46875C3.65031 4.96875 2.98437 5.63469 2.98437 6.45312V18.0312C2.98437 18.8497 3.65031 19.5156 4.46875 19.5156H10.7031C11.1131 19.5156 11.4453 19.8479 11.4453 20.2578C11.4453 20.6678 11.1131 21 10.7031 21H4.46875C2.83173 21 1.5 19.6683 1.5 18.0312V6.45312C1.5 4.81611 2.83173 3.48438 4.46875 3.48438H5.39648V2.74219C5.39648 2.33224 5.72873 2 6.13867 2C6.54861 2 6.88086 2.33224 6.88086 2.74219V3.48438H10.2207V2.74219C10.2207 2.33224 10.5529 2 10.9629 2C11.3728 2 11.7051 2.33224 11.7051 2.74219V3.48438H15.082V2.74219C15.082 2.33224 15.4143 2 15.8242 2C16.2342 2 16.5664 2.33224 16.5664 2.74219V3.48438H17.5312C19.1681 3.48438 20.5 4.81611 20.5 6.45312ZM6.88086 9.79297C6.88086 9.38303 6.54861 9.05078 6.13867 9.05078C5.72873 9.05078 5.39648 9.38303 5.39648 9.79297C5.39648 10.2029 5.72873 10.5352 6.13867 10.5352C6.54861 10.5352 6.88086 10.2029 6.88086 9.79297ZM12.5957 10.5352C13.0056 10.5352 13.3379 10.2029 13.3379 9.79297C13.3379 9.38303 13.0056 9.05078 12.5957 9.05078C12.1858 9.05078 11.8535 9.38303 11.8535 9.79297C11.8535 10.2029 12.1858 10.5352 12.5957 10.5352ZM15.8242 10.5352C16.2342 10.5352 16.5664 10.2029 16.5664 9.79297C16.5664 9.38303 16.2342 9.05078 15.8242 9.05078C15.4143 9.05078 15.082 9.38303 15.082 9.79297C15.082 10.2029 15.4143 10.5352 15.8242 10.5352ZM6.88086 13.0215C6.88086 12.6115 6.54861 12.2793 6.13867 12.2793C5.72873 12.2793 5.39648 12.6115 5.39648 13.0215C5.39648 13.4314 5.72873 13.7637 6.13867 13.7637C6.54861 13.7637 6.88086 13.4313 6.88086 13.0215ZM6.13867 15.5078C5.72873 15.5078 5.39648 15.8401 5.39648 16.25C5.39648 16.6599 5.72873 16.9922 6.13867 16.9922C6.54861 16.9922 6.88086 16.6599 6.88086 16.25C6.88086 15.8401 6.54861 15.5078 6.13867 15.5078ZM10.1094 9.79297C10.1094 9.38303 9.77712 9.05078 9.36718 9.05078C8.95724 9.05078 8.625 9.38303 8.625 9.79297C8.625 10.2029 8.95724 10.5352 9.36718 10.5352C9.77712 10.5352 10.1094 10.2029 10.1094 9.79297ZM10.1094 13.0215C10.1094 12.6115 9.77712 12.2793 9.36718 12.2793C8.95724 12.2793 8.625 12.6115 8.625 13.0215C8.625 13.4314 8.95724 13.7637 9.36718 13.7637C9.77712 13.7637 10.1094 13.4313 10.1094 13.0215ZM9.36718 15.5078C8.95724 15.5078 8.625 15.8401 8.625 16.25C8.625 16.6599 8.95724 16.9922 9.36718 16.9922C9.77712 16.9922 10.1094 16.6599 10.1094 16.25C10.1094 15.8401 9.77712 15.5078 9.36718 15.5078ZM11.8535 13.0215C11.8535 13.4314 12.1858 13.7637 12.5957 13.7637C13.0056 13.7637 13.3379 13.4314 13.3379 13.0215C13.3379 12.6115 13.0056 12.2793 12.5957 12.2793C12.1858 12.2793 11.8535 12.6115 11.8535 13.0215ZM15.082 13.0215C15.082 13.4314 15.4143 13.7637 15.8242 13.7637C16.2342 13.7637 16.5664 13.4314 16.5664 13.0215C16.5664 12.6115 16.2342 12.2793 15.8242 12.2793C15.4143 12.2793 15.082 12.6115 15.082 13.0215ZM20.1898 14.0879C19.8565 13.8493 19.3929 13.926 19.1543 14.2594L15.496 19.3694C15.3961 19.4852 15.2709 19.5101 15.2039 19.5146C15.1349 19.5192 15.0026 19.5106 14.886 19.4013L12.5218 17.0939C12.2284 16.8077 11.7584 16.8133 11.4721 17.1067C11.186 17.4001 11.1916 17.8701 11.485 18.1563L13.8534 20.4676C13.8555 20.4696 13.8578 20.4718 13.86 20.4739C14.2152 20.8118 14.689 20.9999 15.1767 20.9999C15.2186 20.9999 15.2606 20.9986 15.3026 20.9957C15.8338 20.9603 16.3297 20.702 16.6632 20.2869C16.6718 20.2762 16.6802 20.2654 16.6882 20.2542L20.3613 15.1234C20.5999 14.7901 20.523 14.3265 20.1898 14.0879Z" fill="#666666"/>
</svg>
