<svg width="32" height="32" viewBox="0 0 32 32" fill="none" xmlns="http://www.w3.org/2000/svg">
<g clip-path="url(#clip0_1713_35384)">
<path d="M23.5766 13.396H23.5873C24.5127 13.396 25.2625 12.6455 25.2625 11.7208C25.2625 10.7954 24.5127 10.0449 23.5873 10.0449C23.5753 10.0449 23.5633 10.0449 23.5512 10.0455H8.21131C8.19925 10.0449 8.18725 10.0449 8.17519 10.0449C7.24981 10.0449 6.5 10.7954 6.5 11.7208C6.5 12.6455 7.24981 13.396 8.17519 13.396H8.18594" fill="#F1B986"/>
<path d="M23.1919 5.67073C18.3186 5.1983 13.4453 5.1983 8.57198 5.67073C8.1938 8.7008 8.08242 11.7308 8.2378 14.7609C8.35092 16.9665 10.1159 18.7222 12.3221 18.8264C14.6954 18.9385 17.0685 18.9385 19.4418 18.8264C21.6479 18.7222 23.413 16.9666 23.5261 14.7609C23.6815 11.7308 23.5701 8.70073 23.1919 5.67073Z" fill="#F1D0A5"/>
<path d="M8.5719 5.67047C11.0082 5.43422 13.4451 5.31641 15.882 5.31641C14.6483 5.31641 13.4145 5.43566 12.1808 5.67409C11.9888 8.73334 11.9328 11.7927 12.0114 14.8512C12.063 16.8643 12.7988 18.5059 13.7642 18.8803C13.2837 18.8673 12.8023 18.8491 12.3218 18.8265C10.1161 18.7226 8.3509 16.9668 8.23746 14.761C8.08265 11.7309 8.1939 8.70066 8.5719 5.67047Z" fill="#F1B986"/>
<path d="M15.8805 16.3928C15.0286 16.3928 14.2421 15.8954 13.8768 15.1256C13.7625 14.8847 13.8651 14.5966 14.1061 14.4823C14.3471 14.368 14.635 14.4706 14.7494 14.7115C14.9556 15.1462 15.3996 15.427 15.8806 15.427C16.3615 15.427 16.8055 15.1462 17.0118 14.7115C17.1261 14.4707 17.4141 14.368 17.6551 14.4823C17.8961 14.5967 17.9987 14.8847 17.8843 15.1257C17.5189 15.8954 16.7324 16.3928 15.8805 16.3928Z" fill="#454045"/>
<path d="M12.3147 13.137C12.6999 13.137 13.0122 12.6722 13.0122 12.0988C13.0122 11.5254 12.6999 11.0605 12.3147 11.0605C11.9295 11.0605 11.6172 11.5254 11.6172 12.0988C11.6172 12.6722 11.9295 13.137 12.3147 13.137Z" fill="#454045"/>
<path d="M19.4495 13.137C19.8347 13.137 20.147 12.6722 20.147 12.0988C20.147 11.5254 19.8347 11.0605 19.4495 11.0605C19.0642 11.0605 18.752 11.5254 18.752 12.0988C18.752 12.6722 19.0642 13.137 19.4495 13.137Z" fill="#454045"/>
<path d="M19.9401 8.19031C17.139 9.27238 13.1601 8.79525 11.1549 6.79C11.1549 6.79 10.6787 10.0457 8.21162 10.0457L7.13581 10.4076C4.26249 -0.871 10.3911 2.14256 10.3911 2.14256C10.9697 1.02125 11.8124 0.557063 12.693 0.445062C12.7705 0.4355 12.8481 0.428313 12.9261 0.4235C12.9323 0.4235 12.9385 0.423 12.9447 0.422563C13.565 0.389563 14.1929 0.515375 14.7509 0.694875C14.9452 0.757563 15.1313 0.8265 15.3056 0.897812C16.0067 1.1845 16.5173 1.50656 16.6245 1.5755C16.6384 1.58506 16.6456 1.58987 16.6456 1.58987C17.2763 0.755188 17.8779 0 18.5392 0C18.8106 0 18.9982 0.103875 19.1241 0.269937C19.6012 0.895437 19.2092 2.39956 19.1777 2.51781L19.1762 2.52306C19.1767 2.52213 19.1772 2.52019 19.1782 2.51781L19.1816 2.50919C19.2662 2.29569 20.2138 0 21.9132 0C22.0204 0 22.1166 0.0100625 22.2022 0.0291875C23.469 0.309125 22.4774 2.52494 22.3683 2.75944L22.3654 2.76612C22.3626 2.77187 22.3606 2.77619 22.3597 2.77806C22.4137 2.70913 24.5353 0.0157501 25.4781 1.25144C25.4786 1.25238 25.4786 1.25238 25.479 1.25287C26.43 2.50631 22.7397 7.10875 19.9401 8.19031Z" fill="#F4DD45"/>
<path d="M25.4772 1.2516H25.4767C25 0.775414 23.349 3.02329 22.3574 2.77966L22.3646 2.76629C22.3617 2.77204 22.3598 2.77635 22.3589 2.77823C22.413 2.70935 24.5345 0.0159761 25.4772 1.2516Z" fill="#ECC32E"/>
<path d="M22.2028 0.0291875C21.4867 -0.133437 20.823 1.22956 20.4479 2.19712C20.2665 2.66506 19.7048 2.85281 19.2782 2.58844L19.1758 2.52494L19.1767 2.523L19.1782 2.51775H19.1787L19.182 2.50912C19.2667 2.29569 20.2143 0 21.9137 0C22.0209 0 22.1172 0.0100625 22.2028 0.0291875Z" fill="#ECC32E"/>
<path d="M12.693 0.445312C10.6438 0.806625 9.86945 5.50481 11.1549 6.79025C11.1549 6.79025 10.6787 10.046 8.21164 10.046L7.13583 10.4078C4.26245 -0.87075 10.3911 2.14281 10.3911 2.14281C10.9696 1.0215 11.8125 0.557313 12.693 0.445312Z" fill="#ECC32E"/>
<path d="M19.1241 0.269937C18.4039 -0.450313 17.9239 3.24331 16.3024 3.83481C14.681 4.42631 14.5293 3.67019 14.5293 3.67019V3.66969C15.3275 3.37444 16.0014 2.44119 16.645 1.58931C16.6455 1.58981 16.6455 1.58981 16.6455 1.58981C16.6652 1.5635 16.6848 1.53762 16.7044 1.51181C16.7288 1.47881 16.7542 1.44575 16.779 1.41325C17.362 0.651812 17.9248 0 18.5393 0C18.8107 0 18.9982 0.103875 19.1241 0.269937Z" fill="#ECC32E"/>
<path d="M25.5676 15.2349L17.1988 17.0486L17.1987 17.0486V17.0485H14.8029V17.0486L14.8027 17.0485L6.43394 15.2348C5.58044 15.0495 4.77344 15.7003 4.77344 16.5735V26.6487C4.77344 27.2936 5.22344 27.8515 5.85344 27.988L14.8027 29.9274L14.8029 29.9273L17.1987 29.9274H17.1988L26.1481 27.988C26.7781 27.8515 27.2281 27.2936 27.2281 26.6487V16.5736C27.2281 15.7004 26.4211 15.0495 25.5676 15.2349Z" fill="#DFEAEF"/>
<path d="M28.1289 17.5741V28.458C28.1289 29.1546 27.6428 29.7573 26.9622 29.9047L17.2947 31.9998L16.0469 31.2106V18.9101L17.2947 18.0873L26.3352 16.128C27.2572 15.9277 28.1289 16.6308 28.1289 17.5741Z" fill="#B69FFA"/>
<path d="M16.0459 18.9102V31.2106L14.7053 31.9999L5.03778 29.9048C4.35722 29.7573 3.87109 29.1546 3.87109 28.458V17.5741C3.87109 16.6309 4.74291 15.9278 5.66491 16.128L14.7054 18.0873L16.0459 18.9102Z" fill="#B69FFA"/>
<path d="M14.707 32.0006V18.0879H17.2952V32.0006" fill="#6C46DB"/>
<path d="M3.60616 22.8328H3.09984C2.35216 22.8328 1.74609 22.2267 1.74609 21.4791V20.2639C1.74609 19.5162 2.35222 18.9102 3.09984 18.9102H3.60616C4.35384 18.9102 4.95991 19.5163 4.95991 20.2639V21.4791C4.95991 22.2268 4.35378 22.8328 3.60616 22.8328Z" fill="#F1D0A5"/>
<path d="M3.86634 22.8075C3.78266 22.8249 3.69509 22.8333 3.60622 22.8333H3.09947C2.35197 22.8333 1.74609 22.2268 1.74609 21.4792V20.2642C1.74609 19.516 2.35197 18.9102 3.09947 18.9102H3.60622C3.69509 18.9102 3.78266 18.9185 3.86634 18.9359C3.24372 19.057 2.77372 19.6055 2.77372 20.2642V21.4792C2.77372 22.138 3.24372 22.6865 3.86634 22.8075Z" fill="#F1B986"/>
<path d="M28.9011 22.8328H28.3948C27.6471 22.8328 27.041 22.2267 27.041 21.4791V20.2639C27.041 19.5162 27.6471 18.9102 28.3948 18.9102H28.9011C29.6488 18.9102 30.2548 19.5163 30.2548 20.2639V21.4791C30.2548 22.2268 29.6487 22.8328 28.9011 22.8328Z" fill="#F1D0A5"/>
<path d="M29.1613 22.8075C29.0776 22.8249 28.99 22.8333 28.9011 22.8333H28.3944C27.6469 22.8333 27.041 22.2268 27.041 21.4792V20.2642C27.041 19.516 27.6469 18.9102 28.3944 18.9102H28.9011C28.99 18.9102 29.0776 18.9185 29.1613 18.9359C28.5386 19.057 28.0686 19.6055 28.0686 20.2642V21.4792C28.0686 22.138 28.5386 22.6865 29.1613 22.8075Z" fill="#F1B986"/>
</g>
<defs>
<clipPath id="clip0_1713_35384">
<rect width="32" height="32" fill="white"/>
</clipPath>
</defs>
</svg>
