<svg width="22" height="22" viewBox="0 0 22 22" fill="none" xmlns="http://www.w3.org/2000/svg">
<path d="M19.9994 16.9597L17.8551 14.8155C17.2142 14.1745 17.11 13.1895 17.4113 12.3346C17.711 11.4842 17.875 10.5702 17.875 9.61719C17.875 5.06594 14.1763 1.36719 9.625 1.36719C5.07375 1.36719 1.375 5.07281 1.375 9.62406C1.375 14.1753 5.07375 17.8741 9.625 17.8741C10.5803 17.8741 11.4937 17.7093 12.3456 17.4082C13.1985 17.1067 14.1808 17.2118 14.8205 17.8514L16.9675 19.9984C17.3869 20.4178 17.9369 20.6241 18.4869 20.6241C19.0369 20.6241 19.5869 20.4178 20.0063 19.9984C20.845 19.1597 20.845 17.7984 20.0063 16.9666L19.9994 16.9597ZM2.75 9.62406C2.75 5.83594 5.83687 2.74906 9.625 2.74906C13.4131 2.74906 16.5 5.83594 16.5 9.62406C16.5 13.4122 13.4131 16.4991 9.625 16.4991C5.83687 16.4991 2.75 13.4122 2.75 9.62406ZM19.0231 19.0222C18.7206 19.3247 18.2325 19.3247 17.93 19.0222L15.4249 16.5171C15.1313 16.2234 15.1562 15.7425 15.4498 15.4489C15.7435 15.1553 16.2244 15.1303 16.518 15.4239L19.0231 17.9291C19.3256 18.2316 19.3256 18.7197 19.0231 19.0222Z" fill="#666666"/>
<path d="M10.12 4.85394C9.30188 4.70957 8.48375 4.92957 7.85813 5.45207C7.2325 5.97457 6.875 6.74457 6.875 7.55582C6.875 7.93394 7.18437 8.24332 7.5625 8.24332C7.94062 8.24332 8.25 7.93394 8.25 7.55582C8.25 7.15019 8.42875 6.76519 8.73813 6.50394C9.05437 6.23582 9.46 6.13269 9.87937 6.20832C10.4225 6.30457 10.8831 6.76519 10.9794 7.30832C11.0963 7.96144 10.7525 8.58707 10.1544 8.83457C9.41875 9.13707 8.94438 9.87269 8.94438 10.7114V11.6877C8.94438 12.0658 9.25375 12.3752 9.63188 12.3752C10.01 12.3752 10.3194 12.0658 10.3194 11.6877V10.7114C10.3194 10.4364 10.4637 10.1958 10.6837 10.1064C11.8869 9.61144 12.5675 8.36019 12.3406 7.07457C12.1481 5.96769 11.2337 5.05332 10.1269 4.86082L10.12 4.85394Z" fill="#666666"/>
<path d="M9.625 14.4375C10.0047 14.4375 10.3125 14.1297 10.3125 13.75C10.3125 13.3703 10.0047 13.0625 9.625 13.0625C9.2453 13.0625 8.9375 13.3703 8.9375 13.75C8.9375 14.1297 9.2453 14.4375 9.625 14.4375Z" fill="#666666"/>
</svg>
