<svg width="22" height="22" viewBox="0 0 22 22" fill="none" xmlns="http://www.w3.org/2000/svg">
<path d="M20.7795 9.40136L11.6128 1.15136C11.4445 0.99985 11.226 0.916016 10.9996 0.916016C10.7731 0.916016 10.5546 0.99985 10.3863 1.15136L1.21965 9.40136C1.04452 9.56543 0.940708 9.79163 0.930515 10.0314C0.920323 10.2712 1.00456 10.5054 1.16514 10.6837C1.32572 10.862 1.54983 10.9703 1.78934 10.9852C2.02886 11.0001 2.26468 10.9206 2.44615 10.7635L10.9996 3.06536L19.553 10.7654C19.7345 10.9224 19.9703 11.002 20.2098 10.9871C20.4493 10.9721 20.6734 10.8639 20.834 10.6855C20.9946 10.5072 21.0788 10.273 21.0686 10.0332C21.0584 9.79347 20.9546 9.56726 20.7795 9.40319V9.40136Z" fill="#225AD6"/>
<path d="M18.3333 11.916C18.0902 11.916 17.8571 12.0126 17.6852 12.1845C17.5132 12.3564 17.4167 12.5896 17.4167 12.8327V18.1255C17.4164 18.4235 17.2979 18.7092 17.0872 18.9199C16.8765 19.1306 16.5908 19.2491 16.2928 19.2493H5.70717C5.40918 19.2491 5.12347 19.1306 4.91276 18.9199C4.70206 18.7092 4.58358 18.4235 4.58333 18.1255V12.8327C4.58333 12.5896 4.48676 12.3564 4.31485 12.1845C4.14294 12.0126 3.90978 11.916 3.66667 11.916C3.42355 11.916 3.19039 12.0126 3.01849 12.1845C2.84658 12.3564 2.75 12.5896 2.75 12.8327V18.1255C2.75073 18.9096 3.06252 19.6613 3.61694 20.2157C4.17136 20.7702 4.9231 21.082 5.70717 21.0827H16.2928C17.0769 21.082 17.8286 20.7702 18.3831 20.2157C18.9375 19.6613 19.2493 18.9096 19.25 18.1255V12.8327C19.25 12.5896 19.1534 12.3564 18.9815 12.1845C18.8096 12.0126 18.5764 11.916 18.3333 11.916Z" fill="#225AD6"/>
</svg>
