<svg width="192" height="192" viewBox="0 0 192 192" fill="none" xmlns="http://www.w3.org/2000/svg">
<path d="M58.62 78.0009C56.4488 78.0327 54.293 77.6325 52.2779 76.8236C50.2628 76.0147 48.4287 74.8132 46.8821 73.289C45.3356 71.7648 44.1075 69.9483 43.2694 67.9451C42.4313 65.942 41.9998 63.7923 42 61.6209V55.3809C42 51.0048 43.7384 46.8079 46.8327 43.7136C49.9271 40.6192 54.1239 38.8809 58.5 38.8809C62.8761 38.8809 67.0729 40.6192 70.1673 43.7136C73.2616 46.8079 75 51.0048 75 55.3809V61.6209C75.004 63.773 74.583 65.9048 73.7612 67.8939C72.9394 69.883 71.733 71.6903 70.2112 73.2121C68.6894 74.7339 66.8821 75.9403 64.893 76.7621C62.9039 77.5838 60.7722 78.0048 58.62 78.0009Z" fill="url(#paint0_linear_1659_37437)"/>
<path d="M75 55.6191V61.6191C75 65.9952 73.2616 70.192 70.1673 73.2864C67.0729 76.3807 62.8761 78.1191 58.5 78.1191C54.1239 78.1191 49.9271 76.3807 46.8327 73.2864C43.7384 70.192 42 65.9952 42 61.6191V55.6191C42 59.9952 43.7384 64.192 46.8327 67.2864C49.9271 70.3807 54.1239 72.1191 58.5 72.1191C62.8761 72.1191 67.0729 70.3807 70.1673 67.2864C73.2616 64.192 75 59.9952 75 55.6191Z" fill="#EAB39B"/>
<path d="M39 156H51V183C51 184.591 50.3679 186.117 49.2426 187.243C48.1174 188.368 46.5913 189 45 189C43.4087 189 41.8826 188.368 40.7574 187.243C39.6321 186.117 39 184.591 39 183V156Z" fill="url(#paint1_linear_1659_37437)"/>
<path d="M66 156H78V183C78 184.591 77.3679 186.117 76.2426 187.243C75.1174 188.368 73.5913 189 72 189C70.4087 189 68.8826 188.368 67.7574 187.243C66.6321 186.117 66 184.591 66 183V156Z" fill="url(#paint2_linear_1659_37437)"/>
<path d="M9 186V153C9 152.204 9.31607 151.441 9.87868 150.879C10.4413 150.316 11.2044 150 12 150C12.7956 150 13.5587 150.316 14.1213 150.879C14.6839 151.441 15 152.204 15 153V186C15 186.796 14.6839 187.559 14.1213 188.121C13.5587 188.684 12.7956 189 12 189C11.2044 189 10.4413 188.684 9.87868 188.121C9.31607 187.559 9 186.796 9 186Z" fill="#8288A1"/>
<path d="M105 186V153C105 152.204 105.316 151.441 105.879 150.879C106.441 150.316 107.204 150 108 150C108.796 150 109.559 150.316 110.121 150.879C110.684 151.441 111 152.204 111 153V186C111 186.796 110.684 187.559 110.121 188.121C109.559 188.684 108.796 189 108 189C107.204 189 106.441 188.684 105.879 188.121C105.316 187.559 105 186.796 105 186Z" fill="#8288A1"/>
<path d="M101.999 81.0002C101.999 84.1828 100.735 87.235 98.4846 89.4855C96.2341 91.7359 93.1819 93.0002 89.9993 93.0002H77.9993V111C37.4093 110.76 64.2893 111 29.0393 111C27.3723 111.017 25.7283 110.611 24.2615 109.819C22.7947 109.026 21.5532 107.875 20.6536 106.471C19.7539 105.068 19.2256 103.459 19.1181 101.795C19.0107 100.131 19.3276 98.4677 20.0393 96.9602C22.8116 91.2574 27.1371 86.4528 32.5184 83.0988C37.8997 79.7447 44.1184 77.9775 50.4593 78.0002H89.9993V45.0002C90.0042 43.8172 90.3588 42.662 91.0184 41.68C91.6781 40.6979 92.6133 39.9327 93.7066 39.4807C94.7998 39.0286 96.0023 38.9099 97.1629 39.1393C98.3234 39.3688 99.3903 39.9362 100.229 40.7702C102.659 43.1402 101.999 42.2702 101.999 81.0002Z" fill="url(#paint3_linear_1659_37437)"/>
<path d="M53.82 111C53.0244 111 52.2613 110.684 51.6987 110.122C51.1361 109.559 50.82 108.796 50.82 108C50.7726 105.268 49.6438 102.667 47.6811 100.766C45.7184 98.865 43.082 97.8201 40.35 97.8602H33C32.2044 97.8602 31.4413 97.5442 30.8787 96.9816C30.3161 96.419 30 95.6559 30 94.8602C30 94.0646 30.3161 93.3015 30.8787 92.7389C31.4413 92.1763 32.2044 91.8602 33 91.8602H40.35C55.41 91.7102 60.9 111 53.82 111Z" fill="#DFE2E7"/>
<path d="M152.999 3.00001C145.875 2.9944 138.909 5.10273 132.984 9.05808C127.058 13.0134 122.44 18.6379 119.713 25.2196C116.986 31.8012 116.273 39.044 117.664 46.0311C119.055 53.0181 122.489 59.4352 127.529 64.47L116.999 75H152.999C162.547 75 171.704 71.2072 178.455 64.4559C185.206 57.7045 188.999 48.5478 188.999 39C188.999 29.4522 185.206 20.2955 178.455 13.5442C171.704 6.79286 162.547 3.00001 152.999 3.00001Z" fill="url(#paint4_linear_1659_37437)"/>
<path d="M153 75.0007H117L127.53 64.4707C123.649 60.5823 120.709 55.8571 118.936 50.6572C117.162 45.4572 116.603 39.9203 117.3 34.4707C118.427 43.1423 122.671 51.1075 129.24 56.8787C135.81 62.65 144.256 65.8328 153 65.8328C161.744 65.8328 170.19 62.65 176.76 56.8787C183.329 51.1075 187.573 43.1423 188.7 34.4707C189.343 39.539 188.9 44.6861 187.4 49.5698C185.9 54.4536 183.378 58.9622 180.001 62.7959C176.624 66.6297 172.47 69.7008 167.814 71.8051C163.159 73.9094 158.109 74.9987 153 75.0007Z" fill="#F6B756"/>
<path d="M150 48C150.048 45.2966 150.787 42.6505 152.147 40.3137C153.508 37.9768 155.443 36.0271 157.77 34.65C159.098 33.8201 160.186 32.6583 160.927 31.2792C161.669 29.9001 162.037 28.3514 161.997 26.7863C161.957 25.2211 161.509 23.6935 160.697 22.3544C159.886 21.0152 158.739 19.911 157.371 19.1506C156.002 18.3902 154.459 18 152.893 18.0186C151.328 18.0372 149.794 18.4639 148.444 19.2566C147.093 20.0493 145.973 21.1805 145.194 22.5385C144.415 23.8964 144.003 25.4343 144 27C144 27.7956 143.684 28.5587 143.121 29.1213C142.559 29.6839 141.796 30 141 30C140.204 30 139.441 29.6839 138.879 29.1213C138.316 28.5587 138 27.7956 138 27C138 24.3892 138.681 21.8236 139.977 19.5569C141.272 17.2902 143.137 15.4009 145.387 14.0757C147.636 12.7506 150.193 12.0356 152.803 12.0013C155.414 11.967 157.988 12.6147 160.272 13.8804C162.555 15.146 164.469 16.9857 165.823 19.2176C167.178 21.4496 167.926 23.9964 167.995 26.6063C168.063 29.2162 167.45 31.7988 166.214 34.0987C164.978 36.3986 163.164 38.3362 160.95 39.72C159.491 40.5678 158.271 41.7724 157.406 43.2207C156.54 44.669 156.056 46.3135 156 48C156 48.7956 155.684 49.5587 155.121 50.1213C154.559 50.6839 153.796 51 153 51C152.204 51 151.441 50.6839 150.879 50.1213C150.316 49.5587 150 48.7956 150 48Z" fill="#CF4055"/>
<path d="M156 57C156 57.7956 155.684 58.5587 155.121 59.1213C154.559 59.6839 153.796 60 153 60C152.204 60 151.441 59.6839 150.879 59.1213C150.316 58.5587 150 57.7956 150 57C150 56.2044 150.316 55.4413 150.879 54.8787C151.441 54.3161 152.204 54 153 54C153.796 54 154.559 54.3161 155.121 54.8787C155.684 55.4413 156 56.2044 156 57Z" fill="#CF4055"/>
<path d="M111 156H9V111H111V156Z" fill="url(#paint5_linear_1659_37437)"/>
<path d="M111 156H9V150H111V156Z" fill="#CBA07A"/>
<path d="M111 123H9V114H111V123Z" fill="#E8C4A6"/>
<path d="M114 117H6C5.20435 117 4.44129 116.684 3.87868 116.121C3.31607 115.559 3 114.796 3 114C3 113.204 3.31607 112.441 3.87868 111.879C4.44129 111.316 5.20435 111 6 111H114C114.796 111 115.559 111.316 116.121 111.879C116.684 112.441 117 113.204 117 114C117 114.796 116.684 115.559 116.121 116.121C115.559 116.684 114.796 117 114 117Z" fill="#CBA07A"/>
<path d="M78.0001 105V111C37.4101 110.76 64.2901 111 29.0401 111C27.0889 110.999 25.1801 110.431 23.5453 109.366C21.9104 108.301 20.6198 106.784 19.8301 105H78.0001Z" fill="#DFE2E7"/>
<path d="M39 156H51V165H39V156Z" fill="#DFE2E7"/>
<path d="M66 156H78V165H66V156Z" fill="#DFE2E7"/>
<defs>
<linearGradient id="paint0_linear_1659_37437" x1="58.5" y1="78.0009" x2="58.5" y2="39.0009" gradientUnits="userSpaceOnUse">
<stop stop-color="#E4B7A4"/>
<stop offset="1" stop-color="#FFE3D7"/>
</linearGradient>
<linearGradient id="paint1_linear_1659_37437" x1="45" y1="156.06" x2="45" y2="188.94" gradientUnits="userSpaceOnUse">
<stop stop-color="#313131"/>
<stop offset="1" stop-color="#CED3DD"/>
</linearGradient>
<linearGradient id="paint2_linear_1659_37437" x1="72" y1="156.06" x2="72" y2="188.94" gradientUnits="userSpaceOnUse">
<stop stop-color="#313131"/>
<stop offset="1" stop-color="#CED3DD"/>
</linearGradient>
<linearGradient id="paint3_linear_1659_37437" x1="60.5693" y1="111" x2="60.5693" y2="39.0002" gradientUnits="userSpaceOnUse">
<stop stop-color="#CED3DD"/>
<stop offset="1" stop-color="#313131"/>
</linearGradient>
<linearGradient id="paint4_linear_1659_37437" x1="152.999" y1="75" x2="152.999" y2="3.00001" gradientUnits="userSpaceOnUse">
<stop stop-color="#FBCC88"/>
<stop offset="1" stop-color="#FFE5C3"/>
</linearGradient>
<linearGradient id="paint5_linear_1659_37437" x1="60" y1="156" x2="60" y2="111" gradientUnits="userSpaceOnUse">
<stop stop-color="#B89173"/>
<stop offset="1" stop-color="#F2D3B8"/>
</linearGradient>
</defs>
</svg>
