<svg width="112" height="118" viewBox="0 0 112 118" fill="none" xmlns="http://www.w3.org/2000/svg">
<g filter="url(#filter0_d_1626_37185)">
<rect x="30" y="29" width="58" height="58" rx="29" fill="white"/>
<path d="M66.1431 61.003V56.7961C66.1431 53.6712 64.1432 50.9463 61.3897 49.9285C61.4218 49.7678 61.4397 49.6035 61.4397 49.4392C61.4397 48.0928 60.3469 47 59.0005 47C57.6542 47 56.5613 48.0928 56.5613 49.4392C56.5613 49.5999 56.5792 49.7606 56.6077 49.9142C55.6614 50.2499 54.7864 50.782 54.04 51.5034C52.6329 52.8605 51.858 54.6854 51.858 56.6425V61.003C51.858 61.1566 51.733 61.2852 51.5758 61.2852C50.258 61.2852 49.133 62.278 49.0116 63.5423C48.9437 64.2458 49.1759 64.9458 49.6509 65.4672C50.1223 65.985 50.7973 66.285 51.5008 66.285H55.8078C55.9863 67.8886 57.3506 69.1421 59.0005 69.1421C60.6505 69.1421 62.0147 67.8886 62.1933 66.285H66.5003C67.2039 66.285 67.8788 65.985 68.3502 65.4672C68.8216 64.9458 69.0538 64.2458 68.9895 63.5423C68.868 62.278 67.7395 61.2852 66.4253 61.2852C66.2681 61.2851 66.1431 61.1601 66.1431 61.003ZM59.0005 48.4285C59.5576 48.4285 60.0112 48.8821 60.0112 49.4391C60.0112 49.4855 60.004 49.5284 59.9969 49.5748C59.754 49.5391 59.5076 49.5141 59.2612 49.507C58.8362 49.4926 58.4183 49.5213 58.0041 49.5784C57.9969 49.532 57.9898 49.4891 57.9898 49.4427C57.9899 48.8821 58.4434 48.4285 59.0005 48.4285ZM59.0005 67.7135C58.1399 67.7135 57.4185 67.0992 57.2506 66.285H60.7504C60.5827 67.0992 59.8613 67.7135 59.0005 67.7135ZM67.5681 63.6779C67.5966 63.9851 67.5002 64.2815 67.2967 64.5065C67.0859 64.7315 66.8074 64.8564 66.5003 64.8564H51.5008C51.1937 64.8564 50.9152 64.7314 50.708 64.5065C50.5009 64.2815 50.4044 63.985 50.433 63.6779C50.483 63.1387 50.9866 62.7137 51.5758 62.7137C52.5187 62.7137 53.2865 61.9459 53.2865 61.003V56.6425C53.2865 55.0783 53.9078 53.6176 55.0328 52.5319C56.1078 51.4927 57.5078 50.9284 59.0005 50.9284C59.072 50.9284 59.1398 50.9284 59.2112 50.932C62.2433 51.0391 64.7146 53.6712 64.7146 56.7961V61.003C64.7146 61.9459 65.4824 62.7137 66.4253 62.7137C67.0145 62.7137 67.5145 63.1387 67.5681 63.6779Z" fill="#666666"/>
</g>
<defs>
<filter id="filter0_d_1626_37185" x="0" y="0" width="118" height="118" filterUnits="userSpaceOnUse" color-interpolation-filters="sRGB">
<feFlood flood-opacity="0" result="BackgroundImageFix"/>
<feColorMatrix in="SourceAlpha" type="matrix" values="0 0 0 0 0 0 0 0 0 0 0 0 0 0 0 0 0 0 127 0" result="hardAlpha"/>
<feOffset dy="1"/>
<feGaussianBlur stdDeviation="15"/>
<feComposite in2="hardAlpha" operator="out"/>
<feColorMatrix type="matrix" values="0 0 0 0 0.273077 0 0 0 0 0.273077 0 0 0 0 0.273077 0 0 0 0.25 0"/>
<feBlend mode="normal" in2="BackgroundImageFix" result="effect1_dropShadow_1626_37185"/>
<feBlend mode="normal" in="SourceGraphic" in2="effect1_dropShadow_1626_37185" result="shape"/>
</filter>
</defs>
</svg>
