<svg width="18" height="18" viewBox="0 0 18 18" fill="none" xmlns="http://www.w3.org/2000/svg">
<path d="M7.80975 1.49998C7.97534 1.49998 8.10974 1.36557 8.10974 1.19999V0.299988C8.10974 0.134402 7.97534 0 7.80975 0C7.64417 0 7.50977 0.134402 7.50977 0.299988V1.19999C7.50977 1.36557 7.64417 1.49998 7.80975 1.49998Z" fill="white"/>
<path d="M4.53046 3.59998H5.42445C5.59035 3.59998 5.72443 3.46557 5.72443 3.29999C5.72443 3.1344 5.59035 3 5.42445 3H4.53046C4.36487 3 4.23047 3.1344 4.23047 3.29999C4.23047 3.46557 4.36487 3.59998 4.53046 3.59998Z" fill="white"/>
<path d="M9.5957 3.29999C9.5957 3.46557 9.73011 3.59998 9.89569 3.59998H10.7897C10.9556 3.59998 11.0897 3.46557 11.0897 3.29999C11.0897 3.1344 10.9556 3 10.7897 3H9.89569C9.73011 2.99996 9.5957 3.13437 9.5957 3.29999Z" fill="white"/>
<path d="M9.30007 2.10023C9.37717 2.10023 9.45427 2.07052 9.51277 2.01174L10.1089 1.41173C10.2256 1.29413 10.225 1.10421 10.1074 0.987531C9.99037 0.870847 9.80017 0.871445 9.68317 0.988726L9.08738 1.58874C8.97038 1.70634 8.97098 1.89625 9.08857 2.01293C9.14707 2.07115 9.22357 2.10023 9.30007 2.10023Z" fill="white"/>
<path d="M5.80821 2.01197C5.86671 2.07107 5.94412 2.10046 6.02091 2.10046C6.09741 2.10046 6.17391 2.07167 6.23241 2.01345C6.35 1.89676 6.3506 1.70653 6.23392 1.58925L5.63781 0.989241C5.52081 0.871327 5.33089 0.870729 5.21361 0.987729C5.09602 1.10441 5.09542 1.29433 5.2121 1.41192L5.80821 2.01197Z" fill="white"/>
<path d="M13.9516 8.09962C13.6744 8.09962 13.4161 8.18361 13.2016 8.32761V8.2496C13.2016 7.5053 12.5959 6.8996 11.8516 6.8996C11.5744 6.8996 11.3161 6.98359 11.1017 7.12759V7.04957C11.1017 6.30528 10.4959 5.69957 9.75165 5.69957C9.47536 5.69957 9.21795 5.78296 9.00346 5.92637V3.47991C9.00346 2.71882 8.40106 2.09961 7.66007 2.09961C6.91936 2.09961 6.31668 2.71882 6.31668 3.47991L6.31728 9.40912C5.67947 8.48543 4.41919 8.02671 3.45587 8.40263C3.30586 8.46113 3.17687 8.54424 3.09289 8.60183C2.68757 8.87991 2.69868 9.21984 2.7062 9.33863C2.6792 9.49554 2.7164 9.54022 3.07309 9.96652C3.53241 10.5161 4.4882 11.6594 5.09598 12.7904C5.11518 12.821 5.4035 13.2743 5.80997 13.8245C5.85589 13.8425 5.89878 13.8674 5.93239 13.9079C6.056 14.0567 6.74239 14.5301 7.15248 14.8127C7.46928 15.0311 7.7192 15.2036 7.83529 15.3002C7.96248 15.4064 7.9796 15.5957 7.87368 15.7229C7.81426 15.794 7.72908 15.8309 7.64298 15.8309C7.57517 15.8309 7.50739 15.8078 7.45128 15.7613C7.35586 15.6818 7.09159 15.4997 6.81196 15.3068C6.74028 15.2573 6.67155 15.2096 6.60405 15.1628L6.60166 15.6032C6.60166 17.0141 7.71105 17.9996 9.29986 17.9996H11.9822C13.2263 17.9996 14.2205 17.2703 14.4557 16.1846C14.4809 16.0685 14.5073 15.9728 14.5334 15.8915C14.111 16.0427 13.7198 16.1516 13.5796 16.1894C13.5536 16.1963 13.5272 16.1996 13.5016 16.1996C13.369 16.1996 13.2478 16.1114 13.2118 15.9776C13.1689 15.8174 13.2637 15.653 13.4237 15.6098C14.0093 15.4526 14.6084 15.236 14.9852 15.0572C15.1601 14.666 15.3017 14.1158 15.3017 13.4402V9.44962C15.3016 8.70533 14.696 8.09962 13.9516 8.09962Z" fill="white"/>
</svg>
