<svg width="22" height="22" viewBox="0 0 22 22" fill="none" xmlns="http://www.w3.org/2000/svg">
<path d="M11.0005 11.6875C11.9523 11.6875 12.8828 11.4053 13.6742 10.8764C14.4656 10.3476 15.0824 9.59604 15.4467 8.71667C15.8109 7.8373 15.9062 6.86966 15.7206 5.93613C15.5349 5.0026 15.0765 4.14509 14.4035 3.47205C13.7304 2.79901 12.8729 2.34066 11.9394 2.15497C11.0059 1.96928 10.0382 2.06459 9.15886 2.42883C8.27949 2.79308 7.52788 3.40991 6.99907 4.20132C6.47027 4.99273 6.18802 5.92318 6.18802 6.875C6.18802 8.15136 6.69505 9.37543 7.59757 10.278C8.50009 11.1805 9.72417 11.6875 11.0005 11.6875ZM11.0005 3.4375C11.6804 3.4375 12.345 3.63911 12.9103 4.01683C13.4756 4.39454 13.9162 4.93141 14.1764 5.55953C14.4365 6.18765 14.5046 6.87882 14.372 7.54562C14.2393 8.21243 13.9119 8.82494 13.4312 9.30568C12.9505 9.78643 12.338 10.1138 11.6711 10.2465C11.0043 10.3791 10.3132 10.311 9.68505 10.0508C9.05693 9.79066 8.52006 9.35007 8.14235 8.78477C7.76463 8.21948 7.56302 7.55488 7.56302 6.875C7.56302 5.96332 7.92519 5.08898 8.56984 4.44432C9.2145 3.79967 10.0888 3.4375 11.0005 3.4375ZM19.2505 16.72C18.8719 15.4036 18.0768 14.2454 16.9844 13.4191C15.892 12.5927 14.5611 12.1428 13.1914 12.1367H8.81886C7.44949 12.1443 6.11934 12.5948 5.02721 13.4209C3.93508 14.247 3.13961 15.4044 2.75969 16.72H2.75052C2.64265 17.0951 2.62336 17.4902 2.69417 17.874C2.76499 18.2578 2.92396 18.62 3.15858 18.9319C3.3932 19.2439 3.69704 19.497 4.04618 19.6715C4.39532 19.8461 4.78021 19.9371 5.17052 19.9375H16.8122C17.2041 19.9399 17.5911 19.851 17.9426 19.6777C18.294 19.5044 18.6003 19.2516 18.837 18.9393C19.0737 18.627 19.2343 18.2638 19.3061 17.8785C19.3778 17.4933 19.3588 17.0966 19.2505 16.72ZM17.7472 18.1042C17.6405 18.2465 17.5021 18.362 17.343 18.4415C17.1839 18.5211 17.0084 18.5625 16.8305 18.5625H5.17969C5.00283 18.5621 4.82847 18.5208 4.67026 18.4417C4.51204 18.3627 4.37427 18.2481 4.26773 18.1069C4.16119 17.9658 4.08877 17.8019 4.05615 17.628C4.02353 17.4542 4.03158 17.2752 4.07969 17.105C4.37698 16.0769 4.99948 15.1728 5.8539 14.5282C6.70831 13.8837 7.74861 13.5335 8.81886 13.53H13.1822C14.254 13.5326 15.2959 13.8836 16.1508 14.5301C17.0056 15.1766 17.6271 16.0836 17.9214 17.1142C17.9689 17.2822 17.9771 17.4589 17.9453 17.6306C17.9135 17.8023 17.8426 17.9643 17.738 18.1042H17.7472Z" fill="#666666"/>
</svg>
