<svg width="64" height="64" viewBox="0 0 64 64" fill="none" xmlns="http://www.w3.org/2000/svg">
<path d="M52.4529 31.875C52.4529 43.0618 61.4614 41.2023 62.3185 48.0947L63.7063 59.2515C64.0139 61.7248 62.7298 63.75 60.2375 63.75H34.0274C31.5352 63.75 30.251 61.7248 30.5586 59.2515L31.9465 48.0947C32.8035 41.2023 41.812 43.0618 41.812 31.875L47.1325 33.7298L52.4529 31.875Z" fill="url(#paint0_linear_1626_37461)"/>
<path d="M36.9824 24.4388C36.9824 30.0444 41.5266 36.8555 47.1322 36.8555C52.7377 36.8555 57.282 30.0444 57.282 24.4388C57.282 18.8333 52.7377 14.2891 47.1322 14.2891C41.5266 14.2891 36.9824 18.8333 36.9824 24.4388Z" fill="url(#paint1_linear_1626_37461)"/>
<path d="M11.2984 31.875C11.2984 43.0618 2.28983 41.2023 1.43279 48.0947L0.0449203 59.2515C-0.262623 61.7248 1.02148 63.75 3.51378 63.75H29.7238C32.2161 63.75 33.5002 61.7248 33.1927 59.2515L31.8048 48.0947C30.9478 41.2023 21.9392 43.0618 21.9392 31.875L16.6188 33.7298L11.2984 31.875Z" fill="url(#paint2_linear_1626_37461)"/>
<path d="M26.7683 24.4388C26.7683 30.0444 22.2241 36.8555 16.6185 36.8555C11.013 36.8555 6.46875 30.0444 6.46875 24.4388C6.46875 18.8333 11.013 14.2891 16.6185 14.2891C22.2241 14.2891 26.7683 18.8333 26.7683 24.4388Z" fill="url(#paint3_linear_1626_37461)"/>
<path d="M26.1225 22.7051C26.1225 37.1464 14.4931 34.746 13.3867 43.6435L11.5951 58.0462C11.1981 61.239 12.8558 63.8534 16.0731 63.8534H46.7159C49.9333 63.8534 51.591 61.239 51.194 58.0462L49.4023 43.6435C48.296 34.746 37.0428 37.1464 37.0428 22.7051L31.9266 25.0995L26.1225 22.7051Z" fill="url(#paint4_linear_1626_37461)"/>
<path d="M44.9551 13.082C44.9551 20.307 39.0981 29.0859 31.873 29.0859C24.648 29.0859 18.791 20.307 18.791 13.082C18.791 5.85702 24.648 6.02362e-07 31.873 0C39.0981 -4.01575e-07 44.9551 5.85702 44.9551 13.082Z" fill="url(#paint5_linear_1626_37461)"/>
<path d="M53.125 58.4375V58.9667H54.1875V58.4375H53.125ZM55.7792 58.4375V58.9667H56.8427V58.4375H55.7792ZM58.4344 58.4375V58.9667H59.4969V58.4375H58.4344ZM61.0938 58.4375V58.9667H62.1562V58.4375H61.0938Z" fill="#6E98F5"/>
<path d="M13.209 58.4375V58.9667H14.2725V58.4375H13.209ZM15.8673 58.4375V58.9667H16.9308V58.4375H15.8673ZM18.5225 58.4375V58.9667H19.5861V58.4375H18.5225ZM21.1777 58.4375V58.9667H22.2413V58.4375H21.1777ZM23.8361 58.4375V58.9667H24.8996V58.4375H23.8361ZM38.047 58.4375V58.9667H39.1105V58.4375H38.047ZM40.7022 58.4375V58.9667H41.7657V58.4375H40.7022ZM43.3574 58.4375V58.9667H44.421V58.4375H43.3574ZM46.0157 58.4375V58.9667H47.0762V58.4375H46.0157ZM48.671 58.4375V58.9667H49.7345V58.4375H48.671Z" fill="#035ED1"/>
<path d="M1.5918 58.4375V58.9667H2.6543V58.4375H1.5918ZM4.24701 58.4375V58.9667H5.30951V58.4375H4.24701ZM6.90533 58.4375V58.9667H7.96783V58.4375H6.90533ZM9.56055 58.4375V58.9667H10.623V58.4375H9.56055Z" fill="#6E98F5"/>
<path d="M31.3418 42.1348L28.6804 42.7677L25.7637 63.75H36.9199L34.0032 42.7677L31.3418 42.1348Z" fill="url(#paint6_linear_1626_37461)"/>
<path d="M34.0059 42.7795C33.7254 42.9837 31.6924 43.0697 31.3455 43.07C30.9986 43.0704 28.9656 42.9881 28.6848 42.7846C28.404 42.581 27.773 40.6484 27.6655 40.3186C27.558 39.9887 26.9287 38.0556 27.0356 37.7256C27.1424 37.3955 28.7855 36.1982 29.066 35.9941C29.3464 35.7899 30.9905 34.5941 31.3374 34.5938C31.6843 34.5934 33.3308 35.786 33.6116 35.9897C33.8924 36.1933 35.5378 37.3874 35.6453 37.7172C35.7527 38.0471 35.1273 39.9814 35.0204 40.3115C34.9136 40.6415 34.2863 42.5753 34.0059 42.7795Z" fill="#A8D0FF"/>
<defs>
<linearGradient id="paint0_linear_1626_37461" x1="61.1148" y1="63.6811" x2="42.2809" y2="41.9293" gradientUnits="userSpaceOnUse">
<stop stop-color="#EAF2FF"/>
<stop offset="1" stop-color="#9BBAFF"/>
</linearGradient>
<linearGradient id="paint1_linear_1626_37461" x1="47.128" y1="37.5814" x2="47.128" y2="14.2892" gradientUnits="userSpaceOnUse">
<stop stop-color="#F5F8FF"/>
<stop offset="1" stop-color="#A0C9FF"/>
</linearGradient>
<linearGradient id="paint2_linear_1626_37461" x1="2.6375" y1="63.6811" x2="21.4713" y2="41.9293" gradientUnits="userSpaceOnUse">
<stop stop-color="#EAF2FF"/>
<stop offset="1" stop-color="#9BBAFF"/>
</linearGradient>
<linearGradient id="paint3_linear_1626_37461" x1="16.6237" y1="37.5814" x2="16.6237" y2="14.2892" gradientUnits="userSpaceOnUse">
<stop stop-color="#F5F8FF"/>
<stop offset="1" stop-color="#A0C9FF"/>
</linearGradient>
<linearGradient id="paint4_linear_1626_37461" x1="31.9266" y1="63.8534" x2="31.9266" y2="22.6609" gradientUnits="userSpaceOnUse">
<stop stop-color="#0CC8EF"/>
<stop offset="1" stop-color="#047AFA"/>
</linearGradient>
<linearGradient id="paint5_linear_1626_37461" x1="31.8724" y1="30.015" x2="31.8724" y2="-0.000667325" gradientUnits="userSpaceOnUse">
<stop stop-color="#0CC8EF"/>
<stop offset="1" stop-color="#047AFA"/>
</linearGradient>
<linearGradient id="paint6_linear_1626_37461" x1="30.9287" y1="63.8357" x2="30.9287" y2="40.8274" gradientUnits="userSpaceOnUse">
<stop stop-color="#F5F8FF"/>
<stop offset="1" stop-color="#A0C9FF"/>
</linearGradient>
</defs>
</svg>
