<svg width="68" height="57" viewBox="0 0 68 57" fill="none" xmlns="http://www.w3.org/2000/svg">
<path d="M6.40156 1.27344H13.3609C16.8937 1.27344 19.7625 4.14219 19.7625 7.675V49.8961C19.7625 53.4289 16.8937 56.2977 13.3609 56.2977H6.40156C2.86875 56.2844 0 53.4156 0 49.8828V7.66172C0 4.12891 2.86875 1.27344 6.40156 1.27344Z" fill="url(#paint0_linear_1626_37478)"/>
<path d="M0 40.9707H19.7625V47.2793H0V40.9707Z" fill="url(#paint1_linear_1626_37478)"/>
<path d="M0 31.834H19.7625V38.1426H0V31.834Z" fill="url(#paint2_linear_1626_37478)"/>
<path d="M33.1227 56.284H26.1633C22.6305 56.284 19.7617 53.4152 19.7617 49.8824V7.66133C19.7617 4.12852 22.6305 1.25977 26.1633 1.25977H33.1227C36.6555 1.25977 39.5242 4.12852 39.5242 7.66133V49.8824C39.5109 53.4152 36.6555 56.284 33.1227 56.284Z" fill="url(#paint3_linear_1626_37478)"/>
<path d="M19.7617 10.2773H39.5242V16.5859H19.7617V10.2773Z" fill="url(#paint4_linear_1626_37478)"/>
<path d="M19.7617 19.4023H39.5242V25.7109H19.7617V19.4023Z" fill="url(#paint5_linear_1626_37478)"/>
<path d="M44.5994 1.60526L51.4127 0.144321C54.8658 -0.599429 58.2658 1.60526 59.0096 5.05838L67.8549 46.3365C68.5986 49.7896 66.3939 53.1896 62.9408 53.9334L56.1275 55.3943C52.6744 56.1381 49.2744 53.9334 48.5307 50.4803L39.6853 9.20213C38.9416 5.74901 41.1463 2.34901 44.5994 1.60526Z" fill="url(#paint6_linear_1626_37478)"/>
<path d="M46.6699 41.7668L65.9809 37.623L67.309 43.7855L47.9848 47.9293L46.6699 41.7668Z" fill="url(#paint7_linear_1626_37478)"/>
<path d="M44.7578 32.8293L64.0687 28.6855L65.3969 34.8613L46.0727 39.0051L44.7578 32.8293Z" fill="url(#paint8_linear_1626_37478)"/>
<defs>
<linearGradient id="paint0_linear_1626_37478" x1="-6.64169" y1="12.2546" x2="25.6319" y2="44.5281" gradientUnits="userSpaceOnUse">
<stop stop-color="#6137C7"/>
<stop offset="1" stop-color="#3B18AA"/>
</linearGradient>
<linearGradient id="paint1_linear_1626_37478" x1="3.47743" y1="37.7184" x2="15.9831" y2="50.2253" gradientUnits="userSpaceOnUse">
<stop stop-color="#E2DCF4"/>
<stop offset="1" stop-color="#CABDEF"/>
</linearGradient>
<linearGradient id="paint2_linear_1626_37478" x1="3.47703" y1="28.5847" x2="15.9827" y2="41.0904" gradientUnits="userSpaceOnUse">
<stop stop-color="#E2DCF4"/>
<stop offset="1" stop-color="#CABDEF"/>
</linearGradient>
<linearGradient id="paint3_linear_1626_37478" x1="13.1147" y1="12.2544" x2="45.3882" y2="44.5278" gradientUnits="userSpaceOnUse">
<stop stop-color="#55DB58"/>
<stop offset="1" stop-color="#0EA012"/>
</linearGradient>
<linearGradient id="paint4_linear_1626_37478" x1="23.2334" y1="7.02676" x2="35.7391" y2="19.5324" gradientUnits="userSpaceOnUse">
<stop stop-color="#D9FFD9"/>
<stop offset="1" stop-color="#B9F9B9"/>
</linearGradient>
<linearGradient id="paint5_linear_1626_37478" x1="23.2334" y1="16.1624" x2="35.7391" y2="28.668" gradientUnits="userSpaceOnUse">
<stop stop-color="#D9FFD9"/>
<stop offset="1" stop-color="#B9F9B9"/>
</linearGradient>
<linearGradient id="paint6_linear_1626_37478" x1="34.143" y1="15.057" x2="72.4839" y2="39.843" gradientUnits="userSpaceOnUse">
<stop stop-color="#ED2E7C"/>
<stop offset="1" stop-color="#E50561"/>
</linearGradient>
<linearGradient id="paint7_linear_1626_37478" x1="49.3859" y1="37.8365" x2="64.2426" y2="47.4408" gradientUnits="userSpaceOnUse">
<stop stop-color="#FAD1DF"/>
<stop offset="1" stop-color="#F9BBD0"/>
</linearGradient>
<linearGradient id="paint8_linear_1626_37478" x1="47.4678" y1="28.9019" x2="62.3245" y2="38.5063" gradientUnits="userSpaceOnUse">
<stop stop-color="#FAD1DF"/>
<stop offset="1" stop-color="#F9BBD0"/>
</linearGradient>
</defs>
</svg>
